<?xml version="1.0" encoding="UTF-8"?>
<svg version="1.1" viewBox="0 0 124.7 124.7" xml:space="preserve" xmlns="http://www.w3.org/2000/svg" xmlns:cc="http://creativecommons.org/ns#" xmlns:dc="http://purl.org/dc/elements/1.1/" xmlns:rdf="http://www.w3.org/1999/02/22-rdf-syntax-ns#" xmlns:xlink="http://www.w3.org/1999/xlink"><metadata><rdf:RDF><cc:Work rdf:about=""><dc:format>image/svg+xml</dc:format><dc:type rdf:resource="http://purl.org/dc/dcmitype/StillImage"/><dc:title/></cc:Work></rdf:RDF></metadata>
<style type="text/css">
	.st0{fill:#212121;}
	.st1{fill:none;stroke:#FFFFFF;stroke-width:18.1401;stroke-linecap:round;stroke-linejoin:round;stroke-miterlimit:10;}
	.st2{clip-path:url(#SVGID_2_);}
	.st3{fill:#D91715;}
	.st4{fill:#1C67AF;}
	.st5{fill:#911C80;}
	.st6{fill:#CAC7B5;}
	.st7{fill:#6AB02E;}
	.st8{fill:#FBC502;}
	.st9{fill:none;stroke:#FFFFFF;stroke-width:15.615;stroke-linecap:round;stroke-linejoin:round;stroke-miterlimit:10;}
</style>
<g transform="translate(-.1)">
	
		
	
	
		
	
	
		<polyline class="st1" points="24.6 62.9 49.7 89.3 100.2 36.4"/>
		
			<defs>
				<circle id="SVGID_1_" cx="62.4" cy="62.4" r="62.4"/>
			</defs>
			<clipPath id="SVGID_2_">
				<use width="100%" height="100%" xlink:href="#SVGID_1_"/>
			</clipPath>
			<g class="st2" clip-path="url(#SVGID_2_)">
				<rect id="Rectangle-1_27_" class="st3" x="83.2" width="20.8" height="20.8"/>
				<rect id="Rectangle-2_27_" class="st4" x="62.4" width="20.8" height="20.8"/>
				<rect id="Rectangle-5_27_" class="st5" x="20.9" width="20.8" height="20.8"/>
				<rect id="Rectangle-7_27_" class="st6" x="104" width="20.8" height="20.8"/>
				<rect id="Rectangle-6_27_" class="st7" x=".1" width="20.8" height="20.8"/>
				<rect id="Rectangle-3_27_" class="st8" x="41.6" width="20.8" height="20.8"/>
				<rect id="Rectangle-18_26_" class="st3" x="83.2" y="41.6" width="20.8" height="20.8"/>
				<rect id="Rectangle-13_26_" class="st4" x=".1" y="41.6" width="20.8" height="20.8"/>
				<rect id="Rectangle-14_26_" class="st5" x="20.9" y="41.6" width="20.8" height="20.8"/>
				<rect id="Rectangle-15_26_" class="st6" x="41.6" y="41.6" width="20.8" height="20.8"/>
				<rect id="Rectangle-16_26_" class="st7" x="62.4" y="41.6" width="20.8" height="20.8"/>
				<rect id="Rectangle-17_26_" class="st8" x="104" y="41.6" width="20.8" height="20.8"/>
				<rect id="Rectangle-24_26_" class="st3" x=".1" y="62.4" width="20.8" height="20.8"/>
				<rect id="Rectangle-19_26_" class="st4" x="104" y="62.4" width="20.8" height="20.8"/>
				<rect id="Rectangle-20_26_" class="st5" x="41.6" y="62.4" width="20.8" height="20.8"/>
				<rect id="Rectangle-21_26_" class="st6" x="83.2" y="62.4" width="20.8" height="20.8"/>
				<rect id="Rectangle-22_26_" class="st7" x="20.9" y="62.4" width="20.8" height="20.8"/>
				<rect id="Rectangle-23_26_" class="st8" x="62.4" y="62.4" width="20.8" height="20.8"/>
				<rect id="Rectangle-30_26_" class="st3" x="83.2" y="83.1" width="20.8" height="20.8"/>
				<rect id="Rectangle-25_26_" class="st4" x="62.4" y="83.1" width="20.8" height="20.8"/>
				<rect id="Rectangle-26_26_" class="st5" x="20.9" y="83.1" width="20.8" height="20.8"/>
				<rect id="Rectangle-27_26_" class="st6" x="41.6" y="83.1" width="20.8" height="20.8"/>
				<rect id="Rectangle-28_26_" class="st7" x="104" y="83.1" width="20.8" height="20.8"/>
				<rect id="Rectangle-29_26_" class="st8" x=".1" y="83.1" width="20.8" height="20.8"/>
				<rect id="Rectangle-39_26_" class="st3" x=".1" y="103.9" width="20.8" height="20.8"/>
				<rect id="Rectangle-31_26_" class="st4" x="41.6" y="103.9" width="20.8" height="20.8"/>
				<rect id="Rectangle-35_26_" class="st5" x="62.4" y="103.9" width="20.8" height="20.8"/>
				<rect id="Rectangle-36_26_" class="st6" x="83.2" y="103.9" width="20.8" height="20.8"/>
				<rect id="Rectangle-37_26_" class="st7" x="20.9" y="103.9" width="20.8" height="20.8"/>
				<rect id="Rectangle-38_26_" class="st8" x="104" y="103.9" width="20.8" height="20.8"/>
				<rect id="Rectangle-12_26_" class="st3" x="41.6" y="20.8" width="20.8" height="20.8"/>
				<rect id="Rectangle-4_26_" class="st4" x="20.9" y="20.8" width="20.8" height="20.8"/>
				<rect id="Rectangle-8_26_" class="st5" x="104" y="20.8" width="20.8" height="20.8"/>
				<rect id="Rectangle-9_26_" class="st6" x="62.4" y="20.8" width="20.8" height="20.8"/>
				<rect id="Rectangle-10_26_" class="st7" x="83.2" y="20.8" width="20.8" height="20.8"/>
				<rect id="Rectangle-11_26_" class="st8" x=".1" y="20.8" width="20.8" height="20.8"/>
			</g>
		
		<polyline class="st9" points="29.8 64.4 51.5 87.1 94.9 41.6"/>
	
</g>
</svg>